<svg xmlns="http://www.w3.org/2000/svg"
     viewBox="0 0 300 300">
  <path id="Selection"
        d="M 129.32,8.18
           C 139.88,-2.93 161.39,-2.32 171.48,9.17
             177.60,16.13 178.97,24.09 179.00,33.00
             187.78,34.59 196.49,39.37 204.00,44.06
             209.84,47.71 215.12,52.16 220.00,57.00
             247.70,84.51 248.00,113.91 248.00,150.00
             248.00,150.00 248.00,198.00 248.00,198.00
             248.00,199.99 247.89,203.14 248.60,204.96
             251.51,212.38 259.05,207.85 268.00,213.22
             276.34,218.23 280.45,230.65 279.91,240.00
             278.96,256.36 271.03,266.97 254.00,267.00
             254.00,267.00 195.00,267.00 195.00,267.00
             192.72,267.00 189.23,266.79 187.28,268.02
             183.19,270.59 184.86,276.44 178.95,285.00
             172.80,293.91 161.93,299.92 151.00,299.92
             139.79,299.92 129.23,293.99 122.79,285.00
             120.57,281.91 118.98,278.65 117.92,275.00
             117.22,272.58 116.99,269.53 114.69,268.02
             112.81,266.79 109.21,267.00 107.00,267.00
             107.00,267.00 48.00,267.00 48.00,267.00
             32.42,266.81 21.04,255.51 20.09,240.00
             19.40,228.67 25.83,217.63 36.00,212.67
             44.22,208.66 53.42,211.93 55.90,203.00
             56.06,201.54 56.00,198.59 55.90,197.00
             55.90,197.00 55.90,142.00 55.90,142.00
             56.00,121.68 55.51,105.45 63.45,86.00
             69.18,71.98 80.24,58.36 92.00,49.00
             99.49,43.04 111.52,35.71 121.00,34.00
             121.01,24.28 122.28,15.60 129.32,8.18 Z
           M 161.20,19.33
           C 155.09,12.02 142.38,12.65 137.57,21.09
             135.88,24.05 136.03,26.74 136.00,30.00
             136.00,30.00 147.00,29.04 147.00,29.04
             147.00,29.04 164.00,30.00 164.00,30.00
             163.96,25.81 164.07,22.76 161.20,19.33 Z
           M 233.00,122.00
           C 232.99,113.37 231.29,105.20 228.66,97.00
             210.56,40.56 135.11,25.44 94.00,66.01
             80.60,79.24 71.03,97.94 71.00,117.00
             71.00,117.00 71.00,149.00 71.00,149.00
             71.00,149.00 71.00,195.00 71.00,195.00
             71.00,195.00 70.00,210.00 70.00,210.00
             70.00,210.00 234.00,210.00 234.00,210.00
             231.65,180.98 233.05,151.17 233.00,122.00 Z
           M 38.22,248.67
           C 42.59,252.98 46.31,252.99 52.00,253.00
             52.00,253.00 182.00,253.00 182.00,253.00
             182.00,253.00 253.00,253.00 253.00,253.00
             255.36,252.96 257.77,252.99 259.91,251.83
             267.62,247.61 267.70,232.17 261.61,226.57
             258.50,223.71 254.91,224.01 251.00,224.11
             251.00,224.11 116.00,224.11 116.00,224.11
             116.00,224.11 46.00,224.11 46.00,224.11
             33.39,227.74 30.64,241.19 38.22,248.67 Z
           M 131.00,267.00
           C 132.48,281.01 147.06,290.38 160.00,283.56
             166.13,280.33 169.45,274.51 171.00,268.00
             164.19,266.06 139.65,267.00 131.00,267.00 Z" />
</svg>
